Coordinates
version=1
nRows=29
nColumns=24
inDegrees=yes

Units are S.I. units (second, meters, Newtons, ...)
Angles are in degrees.

endheader
time	pelvis_tilt	pelvis_list	pelvis_rotation	pelvis_tx	pelvis_ty	pelvis_tz	hip_flexion_r	hip_adduction_r	hip_rotation_r	knee_angle_r	ankle_angle_r	subtalar_angle_r	mtp_angle_r	hip_flexion_l	hip_adduction_l	hip_rotation_l	knee_angle_l	ankle_angle_l	subtalar_angle_l	mtp_angle_l	lumbar_extension	lumbar_bending	lumbar_rotation
      3.61500000	    -15.64966038	     -0.95962510	      4.67979339	     -0.35440285	     -0.02604777	     -0.00694385	     38.55210239	     -1.20962586	     -7.46263927	     -4.74785920	     -7.72942800	      5.45704624	     13.43070569	     -0.05701873	      2.07497760	     -2.27815680	    -10.91306743	      2.84777094	     16.32325374	     14.29475496	     13.43587123	     -0.24162621	     -7.94913568
      3.62000000	    -15.65406917	     -0.95952169	      4.77200394	     -0.34770104	     -0.02688859	     -0.00684047	     38.71076997	     -1.22885787	     -7.72840430	     -5.51428795	     -7.65227310	      5.14741196	     13.34969689	     -0.22373180	      1.97952048	     -2.30273299	    -11.32129545	      2.69630570	     16.66486930	     14.51549847	     13.50552785	     -0.23142130	     -7.94142331
      3.62500000	    -15.63832777	     -0.94563569	      4.87710328	     -0.34095353	     -0.02770435	     -0.00671265	     38.82937705	     -1.26524093	     -7.94717596	     -6.31341882	     -7.59391990	      4.83181647	     13.28100958	     -0.40830595	      1.89071289	     -2.29150170	    -11.73820385	      2.51403560	     17.01994104	     14.72004545	     13.55247291	     -0.24550521	     -7.95565614
      3.63000000	    -15.62419609	     -0.95151489	      4.98418559	     -0.33407998	     -0.02852212	     -0.00659825	     38.91678544	     -1.28219409	     -8.14253659	     -7.11221690	     -7.54354261	      4.52451551	     13.19473979	     -0.57730177	      1.77281432	     -2.33175536	    -12.18394427	      2.30896718	     17.43720068	     14.97975765	     13.61923985	     -0.23413013	     -7.96972846
      3.63500000	    -15.60059798	     -0.96076632	      5.09910565	     -0.32716158	     -0.02930467	     -0.00650657	     38.96999271	     -1.30097642	     -8.29139972	     -7.90841772	     -7.54443266	      4.26735199	     13.10641314	     -0.75103529	      1.64488246	     -2.38274700	    -12.63227957	      2.07256039	     17.89796590	     15.26293949	     13.67690565	     -0.21831851	     -7.99900193
      3.64000000	    -15.57855750	     -1.00394591	      5.20955947	     -0.32010579	     -0.03007022	     -0.00637500	     38.97961422	     -1.27672990	     -8.41790040	     -8.65314585	     -7.57420662	      4.05686457	     13.00131607	     -0.90286371	      1.46453888	     -2.50972354	    -13.11654440	      1.79938802	     18.45198814	     15.64044568	     13.75779351	     -0.17258888	     -8.03696650
      3.64500000	    -15.54914458	     -1.06621465	      5.31683316	     -0.31300140	     -0.03078221	     -0.00625023	     38.94843060	     -1.22961951	     -8.49315345	     -9.34614799	     -7.69078167	      3.91952734	     12.91012554	     -1.05266188	      1.25703267	     -2.65194913	    -13.60962612	      1.47838135	     19.01108633	     16.03583694	     13.83447471	     -0.09820093	     -8.06682521
      3.65000000	    -15.52043898	     -1.15514313	      5.42684900	     -0.30586020	     -0.03143769	     -0.00611889	     38.88086598	     -1.15387688	     -8.53981743	     -9.96179046	     -7.91872438	      3.83443153	     12.84574842	     -1.17779254	      1.01099334	     -2.80886478	    -14.13571682	      1.12079310	     19.60881990	     16.44415690	     13.92102418	     -0.00244192	     -8.10809607
      3.65500000	    -15.49578252	     -1.28722240	      5.51895350	     -0.29865881	     -0.03202684	     -0.00594600	     38.78565368	     -1.01829907	     -8.55372779	    -10.49379968	     -8.28308490	      3.77898474	     12.80881265	     -1.27399974	      0.70459026	     -3.02024588	    -14.69674106	      0.72011021	     20.27060153	     16.89606963	     14.01968608	      0.14067592	     -8.15331292
      3.66000000	    -15.45568481	     -1.45033433	      5.59118773	     -0.29140726	     -0.03250405	     -0.00576388	     38.62826693	     -0.83209572	     -8.45386802	    -10.90728568	     -8.79910720	      3.71622106	     12.81373973	     -1.36860036	      0.35187360	     -3.30032060	    -15.27040861	      0.21794697	     20.96331006	     17.45669782	     14.11319357	      0.32671577	     -8.14631997
      3.66500000	    -15.41079332	     -1.63233630	      5.64838758	     -0.28424372	     -0.03288854	     -0.00552114	     38.47307273	     -0.60952420	     -8.32357727	    -11.28600948	     -9.47025912	      3.59739519	     12.86535969	     -1.43650472	     -0.03301865	     -3.60654885	    -15.87795526	     -0.33889006	     21.67400472	     18.03575673	     14.18494131	      0.53166557	     -8.17661168
      3.67000000	    -15.40884819	     -1.88510193	      5.73105700	     -0.27703113	     -0.03319777	     -0.00533223	     38.33476923	     -0.34040588	     -8.20207113	    -11.58509372	    -10.24619703	      3.45850211	     12.88376324	     -1.40971260	     -0.49947790	     -3.88800302	    -16.56077184	     -0.90625736	     22.42617639	     18.49757634	     14.32306162	      0.79696265	     -8.25167458
      3.67500000	    -15.38708743	     -2.17315181	      5.76641825	     -0.26984200	     -0.03340014	     -0.00510006	     38.17235089	      0.00205266	     -7.95237401	    -11.84793728	    -11.09752521	      3.19350610	     12.88511012	     -1.37319507	     -1.01744190	     -4.26224891	    -17.28166924	     -1.55773891	     23.17748669	     19.03777462	     14.43756573	      1.12216397	     -8.26616890
      3.68000000	    -15.38415652	     -2.49315358	      5.81111543	     -0.26261469	     -0.03350352	     -0.00486952	     38.02898247	      0.37371617	     -7.67565811	    -12.11261186	    -11.95279476	      2.81187032	     12.77942325	     -1.28439892	     -1.58221980	     -4.64592723	    -18.04094075	     -2.29160647	     23.97764474	     19.54431783	     14.58511208	      1.46826520	     -8.30426596
      3.68500000	    -15.36854437	     -2.83610386	      5.80509126	     -0.25540645	     -0.03352445	     -0.00459846	     37.88598159	      0.80962428	     -7.26955630	    -12.40656611	    -12.76919107	      2.27683959	     12.51238632	     -1.18239110	     -2.18375700	     -5.09515406	    -18.83577510	     -3.11875208	     24.76011920	     20.12594315	     14.71647156	      1.85987786	     -8.30298159
      3.69000000	    -15.37818699	     -3.18096185	      5.84949346	     -0.24817586	     -0.03346777	     -0.00433873	     37.77848980	      1.22241439	     -6.87381401	    -12.75378275	    -13.46258530	      1.62546495	     12.10440496	     -1.00373429	     -2.80648194	     -5.53628301	    -19.69708897	     -4.03784793	     25.63613280	     20.60068863	     14.88423505	      2.22432923	     -8.35253575
      3.69500000	    -15.36205014	     -3.52558089	      5.83739275	     -0.24096039	     -0.03334765	     -0.00401938	     37.66126558	      1.68724621	     -6.32697485	    -13.15957253	    -14.02090987	      0.81693015	     11.46304393	     -0.82302884	     -3.44851388	     -6.09062065	    -20.60289091	     -5.08564752	     26.48299390	     21.19013618	     15.01883211	      2.61303961	     -8.33740384
      3.70000000	    -15.32547751	     -3.85087522	      5.78836168	     -0.23374929	     -0.03316438	     -0.00365555	     37.53962439	      2.16937355	     -5.69737201	    -13.63779480	    -14.37594202	     -0.04941315	     10.52011027	     -0.63856230	     -4.08878786	     -6.72225518	    -21.53926068	     -6.30653679	     27.28301467	     21.91220259	     15.12583687	      2.99702858	     -8.27399146
      3.70500000	    -15.28295479	     -4.22599397	      5.77727871	     -0.22647122	     -0.03290359	     -0.00341893	     37.41260101	      2.66632618	     -5.15542814	    -14.17990199	    -14.41545419	     -0.72845181	      8.95190597	     -0.41135446	     -4.79398858	     -7.34786654	    -22.50856640	     -7.73903440	     27.95004358	     22.89539394	     15.24930807	      3.43055379	     -8.29075048
      3.71000000	    -15.25813365	     -4.47925374	      5.72767445	     -0.21935188	     -0.03267166	     -0.00297272	     37.33031592	      3.08826610	     -4.55360036	    -14.75189768	    -14.46607316	     -1.61399007	      8.06487505	     -0.11502323	     -5.40406210	     -8.05419634	    -23.59592113	     -9.20848734	     28.77949873	     23.51108198	     15.34860035	      3.72818825	     -8.20192373
      3.71500000	    -15.23271148	     -4.76774022	      5.67711994	     -0.21222514	     -0.03240895	     -0.00255789	     37.24105569	      3.53142336	     -4.08732074	    -15.31903120	    -14.40362131	     -2.37038340	      7.22381032	      0.23702830	     -6.07451235	     -8.80582104	    -24.74323958	    -10.87551645	     29.48577841	     24.32641438	     15.45248012	      4.06900473	     -8.11801462
      3.72000000	    -15.18307530	     -4.99146186	      5.63360176	     -0.20508855	     -0.03209339	     -0.00210087	     37.11729391	      3.90783027	     -3.68792513	    -15.91403298	    -14.09660036	     -2.91871543	      6.33866594	      0.58436317	     -6.70016205	     -9.55235201	    -25.88015713	    -12.82128632	     30.14832108	     25.35693494	     15.52915685	      4.33382779	     -8.05331320
      3.72500000	    -15.16014844	     -5.22107691	      5.56436925	     -0.19806643	     -0.03179905	     -0.00158806	     37.01707674	      4.29164348	     -3.39231532	    -16.47299851	    -13.80912965	     -3.39494705	      5.78607546	      1.03187391	     -7.35309185	    -10.31783591	    -27.13222189	    -14.84614020	     30.70152362	     26.23429910	     15.61320372	      4.61038122	     -7.93227350
      3.73000000	    -15.12413256	     -5.41864549	      5.48739119	     -0.19109570	     -0.03147429	     -0.00104632	     36.88474818	      4.63687494	     -3.18418226	    -17.01149669	    -13.39348650	     -3.63405647	      5.38152443	      1.49919930	     -7.98735971	    -11.04917863	    -28.39669215	    -17.08227171	     31.13513797	     27.24149159	     15.67368068	      4.85474176	     -7.80926826
      3.73500000	    -15.08619892	     -5.61974573	      5.39451193	     -0.18416448	     -0.03112535	     -0.00051741	     36.72415463	      4.97780999	     -3.06660237	    -17.50307739	    -12.91175525	     -3.67991909	      5.11414538	      2.00407242	     -8.62633696	    -11.72888566	    -29.69466935	    -19.44503288	     31.33052374	     28.22051219	     15.72615386	      5.11183903	     -7.67034839
      3.74000000	    -15.07228275	     -5.79882048	      5.30399629	     -0.17736168	     -0.03081038	      0.00010488	     36.57557130	      5.28711948	     -3.01988048	    -17.96054512	    -12.40527349	     -3.62214262	      5.07874198	      2.58962009	     -9.25169161	    -12.29166816	    -31.05342112	    -21.82490855	     31.54960740	     29.02680917	     15.78359763	      5.32687381	     -7.52418548
      3.74500000	    -15.04148441	     -5.99729432	      5.21347202	     -0.17067910	     -0.03044235	      0.00064850	     36.37809823	      5.59931892	     -3.02463483	    -18.34915709	    -11.90025905	     -3.43768374	      5.12664849	      3.21006694	     -9.87695996	    -12.74998356	    -32.44392371	    -24.26835955	     31.39904438	     29.85285089	     15.80725573	      5.58038519	     -7.39028033
      3.75000000	    -15.04201454	     -6.19814878	      5.13093494	     -0.16405248	     -0.03012271	      0.00121615	     36.19490173	      5.89442013	     -3.11289363	    -18.70182225	    -11.36921235	     -3.16040551	      5.31481329	      3.91021312	    -10.49176320	    -13.04383940	    -33.88066000	    -26.59934006	     31.29403707	     30.44567122	     15.85973783	      5.81619050	     -7.26224726
      3.75500000	    -15.04161691	     -6.40991293	      5.06313748	     -0.15755929	     -0.02977527	      0.00170407	     35.98327298	      6.17954176	     -3.23116688	    -18.99073464	    -10.86376782	     -2.83264072	      5.56552656	      4.66294211	    -11.07970171	    -13.17721767	    -35.34430906	    -28.85678258	     30.93775254	     31.00808553	     15.89757838	      6.06685355	     -7.15102758
